<svg xmlns="http://www.w3.org/2000/svg" xmlns:xlink="http://www.w3.org/1999/xlink" width="36" height="28" viewBox="0 0 36 28"><defs><path id="a" d="M0 0h36v36H0z"/></defs><g transform="translate(0 -4)" fill="none" fill-rule="evenodd"><mask id="b" fill="#fff"><use xlink:href="#a"/></mask><g mask="url(#b)"><path fill="#0F4F72" fill-rule="nonzero" d="M28.46 11.418l.46.376c1.16.948 2.135 2.27 2.307 3.779 1.397-.418 3.036-.319 4.268.404l.505.295-.265.527c-1.042 2.065-3.218 2.705-5.346 2.592-3.185 8.06-10.118 11.875-18.524 11.875-4.343 0-8.328-1.649-10.596-5.565l-.038-.064-.33-.684c-.768-1.722-1.022-3.61-.85-5.497l.052-.565h24.131c.86 0 1.743-.156 2.556-.435.399-.138.847-.33 1.242-.571-.52-.688-.783-1.56-.862-2.416-.105-1.166.125-2.684.902-3.597l.388-.454zM7.135 22.225c-1.07 0-1.941.885-1.941 1.972s.87 1.972 1.941 1.972c1.07-.001 1.94-.886 1.94-1.973 0-1.087-.87-1.971-1.94-1.971zm0 .933c.563 0 1.022.466 1.022 1.04 0 .572-.459 1.037-1.022 1.037-.564 0-1.023-.465-1.023-1.038s.458-1.039 1.023-1.039zm-1.455-9.11v3.728H2.012v-3.728H5.68zm4.5 0v3.728H6.513v-3.728h3.667zm4.501 0v3.728h-3.669v-3.728h3.67zm4.5 0v3.728h-3.668v-3.728h3.668zm4.5 0v3.728h-3.668v-3.728h3.669zm-13.5-4.778v3.726H6.512V9.27h3.667zm4.5 0v3.726h-3.669V9.27h3.67zm4.5 0v3.726h-3.668V9.27h3.668zm0-4.781v3.727h-3.668V4.489h3.668z"/></g></g></svg>