<svg xmlns="http://www.w3.org/2000/svg" xmlns:xlink="http://www.w3.org/1999/xlink" width="33" height="36" viewBox="0 0 33 36"><defs><path id="a" d="M0 0h36v36H0z"/></defs><g transform="translate(-2)" fill="none" fill-rule="evenodd"><mask id="b" fill="#fff"><use xlink:href="#a"/></mask><g mask="url(#b)"><path fill="#01A9E5" d="M28.079 12.592c3.395.983 4.41 3.707 4.41 5.408 0 1.701-.835 3.977-4.052 5.41l.021-.01H2.821a18.02 18.02 0 01-.814-4.889L2 18c0-1.879.287-3.69.819-5.394z"/><path fill="#FED10D" d="M34.996 8.338C31.812 3.325 26.224 0 19.86 0 12.732 0 6.575 4.175 3.683 10.221c-.086.18-.168.36-.248.542 10.95.025 19.863.037 26.736.037 1.272 0 3.335-1.344 4.825-2.462z"/><path fill="#00BFB3" d="M34.996 27.662C31.812 32.675 26.224 36 19.86 36c-7.129 0-13.286-4.175-16.178-10.221-.086-.18-.168-.36-.248-.542 10.95-.025 19.863-.037 26.736-.037 1.272 0 3.335 1.344 4.825 2.462z"/><path fill="#F9B10F" d="M9.477 3.323c3.25 1.435 5.91 4.104 7.48 7.465-4.096-.005-8.603-.014-13.522-.025a18.066 18.066 0 015.869-7.316z"/><path fill="#231F20" d="M17.673 12.598c.535 1.633.827 3.39.827 5.222a16.69 16.69 0 01-.95 5.58H2.822A18.04 18.04 0 012 18c0-1.879.287-3.69.819-5.394z"/><path fill="#019C8F" d="M16.783 25.211c-1.64 3.297-4.344 5.888-7.617 7.239a18.059 18.059 0 01-5.731-7.213c4.831-.011 9.266-.02 13.303-.026z"/></g></g></svg>