<svg xmlns="http://www.w3.org/2000/svg" xmlns:xlink="http://www.w3.org/1999/xlink" width="36" height="36" viewBox="0 0 36 36"><defs><path id="a" d="M0 0h36v36H0z"/></defs><g fill="none" fill-rule="evenodd"><mask id="b" fill="#fff"><use xlink:href="#a"/></mask><g fill="#429DDB" mask="url(#b)"><path d="M24.713 0c3.486 1.623 4.759 2.534 7.18 5.306-1.584 1.027-2.523 1.992-2.817 2.895 1.394 1.41 2.527 2.713 3.399 3.909.093 1.425-.065 3.192-.476 5.3.563.482 1.897.722 4.001.722-.104 3.06-.771 4.927-2.64 8.379-1.485-1.033-2.707-1.659-3.665-1.877-.51 1.25-1.415 2.785-2.714 4.601-1.969.61-3.689 1.033-5.16 1.273 0 2.136.227 3.448.681 3.935-4.064.646-5.525.833-8.828 0 .399-1.058.598-2.37.598-3.935-1.975-.38-3.708-.804-5.197-1.273-.964-1.245-1.888-2.78-2.771-4.601-1.119.28-2.281.906-3.489 1.877C.648 23.766-.143 19.009.021 18.202c1.514.072 2.845-.15 3.993-.664-.287-2.447-.43-4.206-.43-5.275 1.23-2.098 2.525-3.24 3.43-4.062-.295-.59-.572-1.507-2.859-2.895C6.521 2.55 8.54 1.197 11.31 0c.52 1.96 1.136 3.149 1.846 3.566 2.733-1.23 4.332-1.877 4.8-1.943 1.63.425 3.293 1.114 4.99 2.066.843-.895 1.432-2.125 1.768-3.689zm-6.685 7.47c-.793.26-5.523 1.949-8.927 6.59.279 4.317 1.388 7.357 3.404 10.418 3.492 1.23 6.965.852 11.122 0 3.275-4.933 3.311-10.48 3.293-10.51-1.715-2.817-7.224-6.233-8.892-6.497zm-3.92 6.141a2.431 2.431 0 11-2.432 2.431 2.43 2.43 0 012.432-2.43zm7.784 0a2.431 2.431 0 110 4.861 2.431 2.431 0 01-2.433-2.43c0-1.343 1.09-2.43 2.433-2.43z"/></g><path fill="#FFF" d="M9 34h4v3H9z" mask="url(#b)"/></g></svg>