<svg xmlns="http://www.w3.org/2000/svg" xmlns:xlink="http://www.w3.org/1999/xlink" width="34" height="36" viewBox="0 0 34 36"><defs><linearGradient id="b" x1="50%" x2="50%" y1="0%" y2="100%"><stop offset="0%" stop-color="#FC5B2D"/><stop offset="100%" stop-color="#F8CF0D"/></linearGradient><path id="a" d="M0 0h36v36H0z"/></defs><g transform="translate(-1)" fill="none" fill-rule="evenodd"><mask id="c" fill="#fff"><use xlink:href="#a"/></mask><path fill="url(#b)" d="M33.999 17.42c-1.048-2.88-3.148-9.105-11.379-9.837-3.869-.344-7.757 1.367-9.718 4.38-2.204 3.388-2.583 7.876-1.575 10.468 1.007 2.59 3.723 6.17 9.405 6.5 5.682.33 10.662-7.599 5.257-12.17-1.232-1.043-3.473-1.575-5.321-.788-1.848.788-3.172 3.003-2.714 4.902.899 3.724 4.432 3.308 5.497 2.603.303 0 .453.287.303.625-1.134 1.195-4.909 1.794-7.077-1.567-2.169-3.36.21-8.567 4.265-9.635 2.747-.723 5.78.052 7.913 1.796 1.016.83 2.657 3.163 3.024 4.837.436 1.992.237 2.093.237 3.42 1.109 1.15 1.744 2.347 1.988 3.618-1.001.818-2.25 1.298-3.745 1.439-.499.825-.921 1.417-1.268 1.775-.347.359-.969.882-1.866 1.57 0 1.581-.66 3.13-1.98 4.644-1.75-.333-3.119-1.16-4.106-2.48-1.143.011-2.126-.041-2.947-.157a11.51 11.51 0 01-2.366-.59c-1.694 1.146-3.6 1.718-5.72 1.718-.778-1.96-.832-3.779-.16-5.454a8.34 8.34 0 01-2.127-2.928c-2.483-.312-4.59-1.503-6.319-3.573.628-2.175 2.123-3.922 4.486-5.239.07-.779.174-1.47.31-2.075.137-.605.318-1.208.544-1.81-1.512-2.496-2.108-4.82-1.787-6.97 2.448-1.076 4.874-1.168 7.276-.274.697-.518 1.319-.912 1.866-1.182.547-.271 1.197-.492 1.949-.664.471-1.81 1.552-3.251 3.242-4.322 1.682 1.041 2.76 2.326 3.234 3.854a9.041 9.041 0 013.617 1.026 6.837 6.837 0 013.641-1.026c.599 1.336.794 2.614.586 3.835a13.112 13.112 0 012.884 4.274c1.046 2.465.856 2.77 1.15 5.228.032.27-.285.4-.499.229z" mask="url(#c)"/></g></svg>