<svg xmlns="http://www.w3.org/2000/svg" xmlns:xlink="http://www.w3.org/1999/xlink" width="22" height="36" viewBox="0 0 22 36"><defs><path id="a" d="M0 0h36v36H0z"/></defs><g transform="translate(-7)" fill="none" fill-rule="evenodd"><mask id="b" fill="#fff"><use xlink:href="#a"/></mask><g fill="#231F20" fill-rule="nonzero" mask="url(#b)"><path d="M14.618 3.242a2.121 2.121 0 00-1.532-.656c-.577 0-1.114.238-1.511.656-.398.418-.637.975-.617 1.551 0 .577.219 1.134.617 1.552a2.09 2.09 0 001.511.636c.577 0 1.134-.219 1.532-.636.397-.418.636-.975.616-1.552.02-.576-.219-1.133-.616-1.551zm-1.532 30.073c.577 0 1.134-.239 1.532-.637.397-.417.636-.974.616-1.55 0-.598-.219-1.155-.616-1.572a2.103 2.103 0 00-1.532-.637c-.577 0-1.114.22-1.511.637a2.124 2.124 0 00-.617 1.571c0 .577.239 1.114.636 1.512.398.417.955.636 1.512.636l-.02.04zm11.755-6.643a2.11 2.11 0 001.313-1.015l.04-.08a2.155 2.155 0 00.178-1.57 2.129 2.129 0 00-1.014-1.333l-.04-.02a2.154 2.154 0 00-2.924.836 2.205 2.205 0 00.796 3.003 2.26 2.26 0 001.65.179zm-9.547-10.98c-1.194-1.212-3.144-1.252-4.356-.058l-.06.06a3.177 3.177 0 00-.914 2.247c0 .836.318 1.651.914 2.248a3.104 3.104 0 004.376.04l.04-.04a3.261 3.261 0 00.915-2.248c0-.835-.318-1.63-.915-2.247zm-1.254-3.737a5.991 5.991 0 013.242 1.71c.14.14.278.298.398.438l2.148-1.273c-.677-2.109.179-4.436 2.108-5.57l.04-.02a4.576 4.576 0 013.5-.457c1.194.338 2.228 1.134 2.825 2.208a4.8 4.8 0 01.457 3.58 4.741 4.741 0 01-2.168 2.884l-.298.18h-.04a4.57 4.57 0 01-5.45-1.115l-2.148 1.273c.259.677.398 1.412.398 2.148 0 .736-.14 1.472-.398 2.148l2.148 1.253a4.633 4.633 0 012.248-1.412 4.504 4.504 0 013.54.478l.08.04a4.666 4.666 0 012.088 2.844 4.771 4.771 0 01-.457 3.58l-.04.08a4.714 4.714 0 01-2.785 2.147 4.596 4.596 0 01-3.54-.477 4.785 4.785 0 01-2.108-5.57L17.68 21.78c-.12.16-.259.298-.398.438a5.84 5.84 0 01-3.242 1.69v2.526c.875.199 1.69.637 2.327 1.293 1.83 1.85 1.83 4.833 0 6.703a4.61 4.61 0 01-6.504.08l-.08-.08c-1.83-1.85-1.83-4.833 0-6.703a4.755 4.755 0 012.328-1.293v-2.526a5.836 5.836 0 01-3.242-1.69 6.137 6.137 0 010-8.573 5.988 5.988 0 013.242-1.71V9.448a4.682 4.682 0 01-2.327-1.293c-1.83-1.85-1.83-4.833 0-6.703a4.586 4.586 0 016.484-.08c.04.02.06.06.08.08a4.78 4.78 0 010 6.703 4.755 4.755 0 01-2.328 1.293l.02 2.506zm12.113-1.671v-.02a2.093 2.093 0 00-1.293-.994 2.088 2.088 0 00-1.651.218 2.177 2.177 0 00-.995 1.333 2.23 2.23 0 00.22 1.67c.278.498.755.856 1.312 1.015.557.16 1.134.08 1.63-.219h.02c.478-.298.836-.776.975-1.313.14-.596.06-1.193-.218-1.69"/></g></g></svg>