<svg xmlns="http://www.w3.org/2000/svg" xmlns:xlink="http://www.w3.org/1999/xlink" width="29" height="36" viewBox="0 0 29 36"><defs><path id="a" d="M0 0h36v36H0z"/></defs><g transform="translate(-4)" fill="none" fill-rule="evenodd"><mask id="b" fill="#fff"><use xlink:href="#a"/></mask><g mask="url(#b)"><path fill="#3FBEB0" d="M32.6 36C31.317 23.362 20.593 13.5 7.554 13.5c-.965 0-1.917.054-2.854.16V36h27.9z"/><path fill="#069B8F" d="M7.52 13.5c5.183 0 9.996 1.595 13.98 4.323L5.943 36H4.7V13.66a24.79 24.79 0 012.82-.16z"/><path fill="#F04F98" d="M4.7 0h27.6L4.7 31.8z"/><path fill="#353535" d="M7.547 13.5c3.927 0 7.643.9 10.954 2.503L4.7 31.8V13.659a25.764 25.764 0 012.271-.153z"/></g></g></svg>