<svg xmlns="http://www.w3.org/2000/svg" xmlns:xlink="http://www.w3.org/1999/xlink" width="36" height="35" viewBox="0 0 36 35"><defs><path id="a" d="M0 0h36v36H0z"/></defs><g fill="none" fill-rule="evenodd"><mask id="b" fill="#fff"><use xlink:href="#a"/></mask><path fill="#326DE6" fill-rule="nonzero" d="M17.948 0c.33 0 .7.041 1.03.206l12.555 6.01c.618.33 1.112.865 1.318 1.524l3.128 13.46c.083.7-.082 1.4-.494 1.976L26.8 33.922c-.453.618-1.153.947-1.894.865H11.073c-.7-.042-1.4-.37-1.894-.865L.493 23.177a2.597 2.597 0 01-.453-1.976L3.128 7.657c.164-.7.617-1.235 1.235-1.523L16.919.082c.33-.082.7-.082 1.029-.082zm-.618 4.693a.837.837 0 00-.237.453l-.01.123v.206c0 .165.042.33.083.494.041.083.041.165.041.247v.041c.082.453.082.906.082 1.4-.04.124-.082.247-.206.33v.082l-.04.33c-.454.04-.906.123-1.4.205-1.935.412-3.705 1.44-5.064 2.882l-.247-.165h-.041c-.041 0-.082.041-.165.041a.577.577 0 01-.247-.082 8.245 8.245 0 01-.847-.75l-.182-.197c-.041-.082-.124-.123-.165-.165-.123-.123-.206-.247-.329-.37-.041-.041-.082-.041-.124-.082l-.036-.036-.004-.005a.983.983 0 00-.577-.206c-.247 0-.453.082-.576.288a.882.882 0 00.08 1.069l.084.083c.041 0 .041.042.041.042s.083.082.124.082c.123.082.288.165.453.247l.123.062.124.061c.411.247.823.494 1.152.824.07.068.138.194.135.306l-.006.029.242.241c-.041.082-.082.124-.124.206-1.276 2.017-1.81 4.405-1.44 6.751l-.33.083c0 .04-.04.04-.04.04-.042.124-.166.207-.29.29a7.803 7.803 0 01-1.035.208l-.364.038c-.082 0-.164 0-.247.041-.164 0-.33.041-.494.041-.04 0-.082.042-.164.042-.028 0-.037 0-.052.012l-.03.029a.802.802 0 00-.672.843l.013.104c.082.37.452.617.823.576.055 0 .091 0 .134-.012l.072-.03c.04 0 .04 0 .04-.04 0-.042.124 0 .166 0 .164-.042.329-.124.452-.165.083-.041.165-.082.247-.082h.042a7.188 7.188 0 011.358-.37h.041c.124 0 .247.04.33.123.027 0 .036.018.04.03v.01l.371-.04c.618 1.893 1.77 3.581 3.376 4.816.37.288.7.535 1.112.741l-.206.288c0 .042.04.042.04.042a.484.484 0 01.042.411c-.165.412-.412.824-.659 1.194v.041c-.04.083-.082.124-.164.206-.083.082-.165.247-.288.412-.042.041-.042.082-.083.123 0 0 0 .019-.012.03l-.029.012a.847.847 0 00.33 1.111.76.76 0 00.288.082c.288 0 .544-.157.714-.39l.068-.104s0-.04.04-.04c0-.042.042-.083.083-.124.041-.165.124-.288.165-.453l.082-.247c.124-.453.33-.865.535-1.276a.639.639 0 01.33-.247c.03 0 .038 0 .04-.018v-.024l.166-.329a9.682 9.682 0 003.581.659c.741 0 1.482-.083 2.223-.288.453-.083.906-.247 1.318-.37l.164.287c.041 0 .041 0 .041.041a.65.65 0 01.33.247c.206.412.411.824.535 1.277v.04l.082.248c.041.165.083.33.165.453.041.04.041.082.082.123 0 0 0 .018.012.03l.03.011c.164.289.452.494.782.494.123 0 .205-.04.329-.082.165-.082.33-.247.37-.453.033-.164.04-.33 0-.494l-.04-.123c0-.041-.042-.041-.042-.041 0-.042-.041-.083-.082-.124a1.507 1.507 0 00-.288-.412c-.042-.082-.083-.123-.165-.206v-.082a4.867 4.867 0 01-.659-1.194.495.495 0 01.041-.411c0-.028.019-.037.031-.04l.01-.002-.123-.329c2.1-1.276 3.705-3.252 4.446-5.599l.33.041c.04 0 .04-.04.04-.04a.469.469 0 01.33-.124h.041c.453.082.906.206 1.318.37h.04c.083.041.165.083.248.083.164.082.288.164.453.205.04 0 .082.042.164.042.028 0 .037 0 .052.012l.03.029c.083.041.124.041.206.041.371 0 .7-.247.824-.576a.975.975 0 00-.641-.836l-.1-.029c-.041 0-.083 0-.083-.041s-.082-.041-.164-.041c-.165-.041-.33-.041-.494-.041-.083 0-.165 0-.247-.042h-.041a8.159 8.159 0 01-1.4-.247.494.494 0 01-.254-.214l-.034-.074-.33-.082c.165-1.194.083-2.429-.164-3.623a11.15 11.15 0 00-1.441-3.376l.247-.247v-.04c0-.124.041-.289.123-.371.297-.264.593-.474.91-.675l.243-.149.247-.123c.165-.082.288-.165.453-.247.041-.041.082-.041.123-.082.031-.031.016-.039.006-.058l-.006-.025c.37-.288.453-.782.165-1.152a.784.784 0 00-.576-.289.947.947 0 00-.473.137l-.104.07-.04.04c-.042.042-.083.083-.124.083a2.679 2.679 0 00-.33.37.36.36 0 01-.112.122l-.052.043c-.288.33-.659.659-1.03.906-.082.04-.164.082-.246.082-.042 0-.124 0-.165-.041h-.041l-.33.206c-.329-.33-.7-.66-1.029-.988-1.523-1.194-3.417-1.935-5.352-2.141l-.04-.33v.042c-.124-.083-.165-.206-.207-.33 0-.453 0-.905.083-1.4v-.04c0-.083.04-.165.04-.248.042-.164.042-.329.083-.494V5.27c.041-.411-.288-.823-.7-.864-.247-.041-.494.082-.7.288zm.824 17.62c.082.055.146.11.216.177l.113.111 1.976 3.582c-.247.04-.494.082-.782.164a8.298 8.298 0 01-1.77.206c-.865 0-1.77-.165-2.594-.412l2.017-3.663c.206-.248.536-.33.824-.165zm-3.746-1.77c.329 0 .658.205.7.535a.52.52 0 01-.002.333l-.04.078-1.564 3.788c-1.441-.947-2.594-2.388-3.17-4.035l4.076-.7zm6.957-.042l4.117.7c-.206.577-.453 1.112-.783 1.565a7.86 7.86 0 01-2.47 2.47l-1.605-3.87a.669.669 0 01.37-.782c.124-.041.247-.083.37-.083zm-2.84-3.293l.782.988-.289 1.194-1.111.535-1.112-.535-.288-1.194.782-.988h1.235zm6.216-2.923c.453.741.782 1.565.988 2.429.206.865.247 1.73.164 2.594l-3.91-1.112c-.371-.082-.577-.453-.495-.823a.67.67 0 01.165-.288l3.088-2.8zm-13.71 0l3.047 2.717c.288.247.33.659.083.947-.083.124-.165.165-.33.206l-3.993 1.153a8.66 8.66 0 011.194-5.023zm5.847-3.787l-.206 4.116c0 .371-.33.66-.7.66-.124 0-.206-.042-.33-.083l-3.416-2.429c1.07-1.03 2.387-1.77 3.828-2.1l.824-.164zm1.976.04c1.811.207 3.417.989 4.652 2.224L20.13 15.15c-.288.164-.7.123-.906-.165a.374.374 0 01-.123-.288l-.247-4.158z" mask="url(#b)"/></g></svg>