<svg xmlns="http://www.w3.org/2000/svg" xmlns:xlink="http://www.w3.org/1999/xlink" width="26" height="36" viewBox="0 0 26 36"><defs><path id="a" d="M0 0h36v36H0z"/></defs><g transform="translate(-5)" fill="none" fill-rule="evenodd"><mask id="b" fill="#fff"><use xlink:href="#a"/></mask><path fill="#FFF" d="M9 34h4v3H9z" mask="url(#b)"/><g fill="#E6522C" mask="url(#b)"><path d="M23.7 20.514c1.584-2.277 2.217-4.454 1.899-6.53-.476-3.113-1.899-4.365-2.461-5.978-.375-1.075-.474-2.613-.299-4.613-1.226 1.687-1.903 3.124-2.031 4.311-.192 1.78-.35 3.702-.527 4.45-.07 0-.118-3.479-.627-4.955-.51-1.475-1.224-2.675-1.725-4.33-.335-1.103-.335-2.06 0-2.869-1.246.717-1.945 1.754-2.098 3.111-.23 2.036-.523 6.03-1.803 7.397 0-2.299-.859-5.15-2.44-5.678.447 2.11-.296 4.748-.94 6.074-.643 1.327-1.38 4.9-.69 6.536.46 1.09 1.152 2.115 2.077 3.074L5.4 19.026c.555 1.759 1.608 3.52 3.159 5.28h18.796c1.44-1.79 2.457-3.55 3.05-5.28L23.7 20.514zM8.2 25.875h19.04v3.375H8.2zm3.64 5.085c.64 2.73 3.082 4.764 5.996 4.764 2.923 0 5.37-2.044 6.002-4.786"/></g></g></svg>