<svg width="30" height="36" viewBox="0 0 30 36" xmlns="http://www.w3.org/2000/svg"><g fill="#111" fill-rule="evenodd"><path d="M14.318 16.363 1.174 4.096a1 1 0 0 1 .344-1.672C6.012.808 10.506 0 15 0s8.988.808 13.482 2.424a1 1 0 0 1 .344 1.672L15.682 16.363a1 1 0 0 1-1.364 0Z"/><path d="M.812 8.5v4.586l11.915 11.113c.737.667 1.473 1 2.21 1 .737 0 1.474-.333 2.211-1l11.765-11.113V8.5L17.148 19.663c-.737.667-1.474 1-2.21 1-.738 0-1.474-.333-2.211-1L.812 8.5Z"/><path d="M.812 18.5v4.586l11.915 11.113c.737.667 1.473 1 2.21 1 .737 0 1.474-.333 2.211-1l11.765-11.113V18.5L17.148 29.663c-.737.667-1.474 1-2.21 1-.738 0-1.474-.333-2.211-1L.812 18.5Z"/></g></svg>