<svg xmlns="http://www.w3.org/2000/svg" xmlns:xlink="http://www.w3.org/1999/xlink" width="27" height="36" viewBox="0 0 27 36"><defs><linearGradient id="c" x1="-.001%" x2="99.999%" y1="50%" y2="50%"><stop offset="0%" stop-color="#442B1F"/><stop offset="100%" stop-color="#442B1F"/></linearGradient><linearGradient id="d" x1="-.002%" x2="100%" y1="50%" y2="50%"><stop offset="0%" stop-color="#C8B091"/><stop offset="19.87%" stop-color="#C5A788"/><stop offset="52.9%" stop-color="#BC8E6E"/><stop offset="94.79%" stop-color="#AD6745"/><stop offset="99.44%" stop-color="#AB6240"/></linearGradient><linearGradient id="e" x1="0%" x2="100.003%" y1="50.003%" y2="50.003%"><stop offset="0%" stop-color="#88786F"/><stop offset="10.54%" stop-color="#806F66"/><stop offset="28.06%" stop-color="#6B574C"/><stop offset="50.27%" stop-color="#493023"/><stop offset="62.19%" stop-color="#34180A"/><stop offset="100%" stop-color="#3E2316"/></linearGradient><linearGradient id="f" x1="-.007%" x2="100.007%" y1="49.999%" y2="49.999%"><stop offset="0%" stop-color="#F8FB9B"/><stop offset="12.55%" stop-color="#F5F892"/><stop offset="33.43%" stop-color="#EFEF78"/><stop offset="60.05%" stop-color="#E3E14F"/><stop offset="91.08%" stop-color="#D4CE16"/><stop offset="100%" stop-color="#CFC804"/></linearGradient><linearGradient id="g" x1=".005%" x2="99.992%" y1="49.997%" y2="49.997%"><stop offset="0%" stop-color="#F8FB9B"/><stop offset="12.55%" stop-color="#F5F892"/><stop offset="33.43%" stop-color="#EFEF78"/><stop offset="60.05%" stop-color="#E3E14F"/><stop offset="91.08%" stop-color="#D4CE16"/><stop offset="100%" stop-color="#CFC804"/></linearGradient><linearGradient id="h" x1=".005%" x2="100.004%" y1="50.003%" y2="50.003%"><stop offset="0%" stop-color="#F8FB9B"/><stop offset="12.55%" stop-color="#F5F892"/><stop offset="33.43%" stop-color="#EFEF78"/><stop offset="60.05%" stop-color="#E3E14F"/><stop offset="91.08%" stop-color="#D4CE16"/><stop offset="100%" stop-color="#CFC804"/></linearGradient><linearGradient id="i" x1="50%" x2="50%" y1="99.999%" y2="-.002%"><stop offset="37.24%" stop-color="#1D2739"/><stop offset="99.44%" stop-color="#1D2739"/></linearGradient><path id="a" d="M0 0h36v36H0z"/></defs><g transform="translate(-4)" fill="none" fill-rule="evenodd"><mask id="b" fill="#fff"><use xlink:href="#a"/></mask><g mask="url(#b)"><g stroke="#000" stroke-width=".5" transform="translate(13.95 28.588)"><ellipse cx="10.098" cy="2.066" fill="#331E09" fill-rule="nonzero" rx="1.088" ry="1"/><path fill="#F9C89A" fill-rule="nonzero" d="M1.956.045s.433 1.848.49 2.396c.059.549 1.156.809 1.271.174.116-.636.52-2.195.52-2.195L1.957.045zM8.857.45s.577 1.385.577 2.164c0 .78 1.386.896 1.501.376.116-.52.289-2.57.289-2.57L8.857.45z"/><path fill="#A15813" fill-rule="nonzero" d="M3.65 1.69c-.231.097-.885.174-1.136.078-.25-.097.02.904.097 1.212.077.308.885.25.885.25l.154-1.54z"/><ellipse cx="2.281" cy="2.485" fill="#4F2E0E" fill-rule="nonzero" rx="1" ry="1.155"/><ellipse cx="3.797" cy="2.607" fill="#4F2E0E" fill-rule="nonzero" rx="1" ry="1.133"/><path fill="#9E5613" fill-rule="nonzero" d="M.411 5.834s0-.606-.014-1.357c-.014-.75.78-1.704 2.396-1.66 1.617.043 2.368.938 2.368 1.804 0 .866-.072 1.56-.16 1.732-.086.174-4.229.231-4.387.073-.16-.16-.203-.592-.203-.592z"/><path fill="#4F2E0E" fill-rule="nonzero" d="M.411 7.003c-.274-.072-.375-.36-.39-.635-.014-.274.217-.505.39-.534.13.173.39.245.621.289.231.043 3.19.072 3.537.043.346-.03.433-.231.49-.318.246.087.347.347.362.592.014.246-.101.477-.347.563-.245.087-1.545.289-2.44.274C1.74 7.263.412 7.003.412 7.003z"/><path fill="#9E5613" fill-rule="nonzero" d="M11.18 2.326s-.779.462-1.775.115c-.65-.086-.823-.086-.808.231.014.318.1 1.184-.202 1.545-.304.36-.621 1.3-.16 1.732.463.433 7.146.39 7.406.318.26-.072.419-.534.419-.534s.086-.982.058-1.502c-.03-.52-.751-1.472-1.978-1.429-1.227.044-1.732.91-2.281 1.025-.462-.433-.635-.938-.635-1.04 0-.1-.043-.461-.043-.461z"/><path fill="#4F2E0E" fill-rule="nonzero" d="M9.687 3.906c.433 0 .743-.194.78-.642.035-.447-.073-.693-.39-.714-.318-.022-.708-.087-.896-.21-.187-.122-.21-.346-.13-.44.08-.094.217-.18.217-.18l-.05-.138s-.715.275-.65 1.04c.065.765.447 1.284 1.119 1.284zm.786-1.356c.238.093.289.274.253.469-.036.195-.116.758.296.736.411-.022.52-.823.484-1.19-.037-.37-.275-.723-.383-.81-.015.058-.022.109-.022.109s.082.058.085.202c.002.144-.244.419-.713.484z"/><path d="M11.86 3.827c-.222.481-.434 2.021-.241 2.445"/><path fill="#4F2E0E" fill-rule="nonzero" d="M8.236 5.95s-.332.201-.303.519c.028.317.274.39.635.476.36.087 3.782.188 4.403.217.62.029 2.742-.13 3.103-.274.361-.145.679-.78-.014-1.155-.274.303-.49.36-.938.418-.448.058-2.541.073-3.407.044-.866-.03-2.96-.058-3.176-.072-.217-.015-.303-.174-.303-.174z"/></g><g transform="translate(4.52 7.246)"><path fill="#F9C89A" fill-rule="nonzero" stroke="#000" stroke-width=".5" d="M16.136 1.133c-.102.115-.578.664-.347 1.126.231.462 1.545 2.483 1.545 2.483s2.901-1.473 2.815-2.166c-.087-.693-.679-1.515-.679-1.515l-3.334.072zm7.135 10.485c.097-.096.308-.568-.26-.741-.452-.058-.779.154-.875.26-.096.106.202.674.385.693.183.019.75-.212.75-.212z"/><path fill="#F9C89A" fill-rule="nonzero" stroke="#000" stroke-width=".5" d="M23.666 12.138c.087-.125.27-.443-.154-.655-.423-.211-.991.01-1.136.231-.144.222.241.712.318.712.077 0 .972-.288.972-.288z"/><path fill="#F9C89A" fill-rule="nonzero" stroke="#000" stroke-width=".5" d="M22.718 9.809l-.534.938s.298.39.414.88c.115.492-.077.665.086.636.164-.029 1.117-.289 1.3-.173.182.115.433.587.26.904-.174.318-.674.972-1.377 1.146-.702.173-1.549-.145-1.867-.588-.317-.442-.818-1.867-.837-2.117-.02-.25.318-1.01.318-1.01l1.308-.587.93-.03z"/><path fill="#F9C89A" fill-rule="nonzero" stroke="#000" stroke-width=".5" d="M22.04 10.675c.24.135.625.433.721.943.097.51-.105 1.155-.433 1.424"/><path fill="#F9C89A" fill-rule="nonzero" stroke="#000" stroke-width=".5" d="M23.695 12.946s-.231.327-.77.25c-.539-.077-.5-.75-.24-.933.26-.183.673-.327.952-.28.28.049.414.174.414.174"/><path fill="#F9C89A" fill-rule="nonzero" stroke="#000" stroke-width=".5" d="M22.964 12.398l.26.48s-.164.136-.357.049c-.192-.087-.192-.231-.144-.356.048-.125.24-.173.24-.173z"/><path fill="#6D9758" fill-rule="nonzero" stroke="#000" stroke-width=".5" d="M20.99 1.984s1.07.563 1.242 1.256c.52.174 1.131.936 1.073 1.495.559.23.806.554.806.92.308.27.769.96.21 1.961a32.473 32.473 0 00-.885 1.693l-2.233-.193-.193-.674 1.04-1.925s-.462-.75-1.001-.77c-.135.578-.27 1.405-.27 1.405l.058 3.176-.289.174-.058.712.713 1.482.25.23-.655 1.021.155.289.885 2.175-.02.27.52.673-.019.289.289.712-.558 1.27-.347.693.327 1s-.904.829-2.406.81c-1.5-.02-2.521-.79-2.521-.79l-.289-.173s.328-1.886.25-2.945c-.077-1.059-.308-2.656-.308-3.022 0-.366-.096-1.405-.096-1.405s-.135 2.214-.154 3.33c-.02 1.116-.173 2.637-.366 2.945-.192.308-.404.404-.404.404l.212.366.058.442-.231.29-.424-.116s-.827.962-2.329.789c-1.501-.173-2.425-.924-2.521-1.54-.347-.25-.385-.423-.385-.423l.982-1.136-.559-.327.462-.828s.328-.808.385-1.078c.058-.27.231-.924.231-.924l-.481.02.79-1.232-.059-.847 1.444-3.06-.058-.501-.194-.27-.157-1.068.101-.577s.5-.607.557-1.107c.058-.5-.24-1-.24-1L9.947 8.557l-.483.038-1.387.616-.328-.135s-.116-.192-.154-.5c-.039-.308 0-1.694.115-1.887.115-.192.385-.192.385-.192s.442-.077.789-.308c.347-.231 2.483-1.81 3.003-2.214.52-.404 2.329-1.963 2.329-1.963s.615-.481.962-.596c.346-.116.577-.097.577-.097l.02 1.656 1.559 1.766 1.693-1.016 1.348-1.25.616-.492z"/><path fill="#6D9758" fill-rule="nonzero" stroke="#000" stroke-width=".5" d="M15.876 1.19l-.231.145-.997 1.66 1.083.101-.39.75 2.05 1.083.173-.202s-1.14-1.4-1.486-1.833c-.347-.433-.448-1.4-.058-1.66s-.144-.044-.144-.044"/><path fill="#6D9758" fill-rule="nonzero" stroke="#000" stroke-width=".5" d="M16.8 5.153l3.096-.516-.365-1.319 1.325.168.115-1.53-1.37-.881-.13-.014s.331.433.345.967c.015.534-.476.938-.88 1.285-.404.346-2.137 1.84-2.137 1.84zm4.2.383l.217 1.097-1.92 1.227-.347-1.646zm-4.263-.347l.077 4.485-.347 1.27-.019 1.232-.057 1.213.269.404.731-.173m.212-2.945l.077.539 1.136.212-.077-.655zm2.945-.173l-1.001.25.135.674.808-.212m-4.234-.597l.038.693-1.02-.096.116-.674zm-3.003-.25l1.251.038-.058.713-1.135-.174m0-4.6l2.098 1.636.635-1.559-2.252-.943zm10.143 3.45s0-.62.188-.866c-.462-.202-1.573-.65-2.18-.577-.288.346-.803 1.357-.625 1.977.668-.23 2.617-.534 2.617-.534zM8.86 6.113l.664.967.418 1.083s-.26.36-.548.49c-.29.13-1.319.559-1.319.559l-.327-.135s.303-.192.347-1.29c.043-1.096-.231-1.24-.231-1.24l.65-.246.346-.188zm9.802 10.177s.418 1.458 1.025 2.397c.303-.202 2.41-.347 2.92-.332"/><path stroke="#000" stroke-width=".5" d="M10.54 18.817c.384.1 2.015.332 2.015.332s.881.216 1.357.014c.246-.548.982-3.09.982-3.09s-.707-.822-1.343-.952c-.635-.13-1.63-.476-1.63-.476"/><path fill="#6D9758" fill-rule="nonzero" stroke="#000" stroke-width=".5" d="M11.617 15.987c.346-.043 2.064 0 3.046.708"/><path stroke="#000" stroke-width=".5" d="M11.097 19.144l.275.958"/><path fill="#6D9758" fill-rule="nonzero" stroke="#000" stroke-width=".5" d="M10.563 20.693c.65.462 2.353 1.386 4.648.361"/><path stroke="#000" stroke-width=".5" d="M17.175 21.372c.794.317 2.757.404 3.782-.173"/><path fill="#6D9758" fill-rule="nonzero" stroke="#000" stroke-width=".5" d="M20.553 21.04c1.025.332 2.512.39 2.685.029.173-.361-1.535-.75-1.535-.75"/><path fill="#6D9758" fill-rule="nonzero" stroke="#000" stroke-width=".5" d="M19.773 20.39c1.256.188 2.67-.057 2.67-.49 0-.434-1.933-.376-1.933-.376m.39-5.327c.418.506.736.982 1.096 1.097-.866.145-2.944.578-3.262.939-.144-.332-.26-.506-.447-.635.375-.506 2.612-1.4 2.612-1.4z"/><path fill="#F9C89A" fill-rule="nonzero" stroke="#000" stroke-width=".5" d="M7.95 6.82c-.52-.057-1.588-.274-1.977-1.284-.246-.506-.65-.592-.838-.722-.245-.217-.592-.375-1.083-.303-.49.072-1.27-.044-1.76-.332-.491-.29-1.011-.101-1.184.144-.174.245-.188.592-.015.78.173.187.289.303.289.303s-.679.1-.736.606c-.058.505.303.75.534.852.23.1.433.115.433.115s-.26.347-.072.679c.187.332.65.476.65.476s.216.303.447.347c.23.043 1.631.115 1.631.115s.577-.216.91-.245c.331-.03 1.111-.044 1.37.072.26.115 1.401.144 1.401.144s.144-.62.13-.952a4.913 4.913 0 00-.13-.795z"/><path fill="url(#c)" fill-rule="nonzero" d="M5.862 22.185c-.79.077-4.985-.058-5.832-.558.058 2.887.866 5.447 1.386 6.005.52.558 2.136 1.04 3.81 1.04 1.675 0 2.702-.503 2.272-1.175-1.27-1.982-1.636-5.312-1.636-5.312z"/><path fill="url(#d)" fill-rule="nonzero" stroke="#000" stroke-width=".5" d="M4.02 25.746V.05H2.782s.031 20.99.031 22.087c0 1.097.031 1.905.156 2.368.125.461.525 1.068.712 1.154.188.087.34.087.34.087z"/><path fill="url(#e)" fill-rule="nonzero" d="M3.937 22.632H2.878s0 1.576.135 1.807c.183.01.934.025.934.025l-.01-1.832z"/><path fill="#F9C89A" fill-rule="nonzero" stroke="#000" stroke-width=".5" d="M2.417 5.95s-.318.548-.299.721c.02.174.616.049.655-.173.038-.221-.356-.548-.356-.548zm.307 2.56c.26.014.737.043.91-.188.173-.231.592-.448.592-.707 0-.26-.072-.405-.332-.607-.26-.202-1.53.29-1.603.419-.072.13-.173.49-.13.592.044.1.13.288.26.375.13.087.303.116.303.116z"/><path fill="#F9C89A" fill-rule="nonzero" stroke="#000" stroke-width=".5" d="M3.475 7.441l.347.246s.346-.275.028-.477c-.317-.202-.404.101-.404.101l.03.13z"/><path fill="#F9C89A" fill-rule="nonzero" stroke="#000" stroke-width=".5" d="M1.993 8.067c.173.048.154.163.597.048.442-.116.943-.5 1.087-.847.145-.347-.664-.914-1-.837-.338.077-.915.356-1.064.548-.15.193-.178.568-.082.712.096.145.462.376.462.376zm1.569-2.685c-.106-.154-.212-.462-.347-.549-.134-.087-.577-.433-.712-.52-.135-.086-.549-.404-.905-.308-.356.097-.683.299-.635.78.048.481.356.53.52.693.163.163.395.395.53.471.134.078.519.26.808.29a.747.747 0 00.673-.338c.106-.182.068-.52.068-.52z"/><path fill="#F9C89A" fill-rule="nonzero" stroke="#000" stroke-width=".5" d="M2.994 5.093l-.49.808s.535.198.73-.096c.27-.404-.24-.712-.24-.712z"/><path fill="#F9C89A" fill-rule="nonzero" stroke="#000" stroke-width=".5" d="M4.27 4.655c-.434.13-1.517 1.126-1.733 1.66-.217.534-.145.996.289 1.17.433.173 1.068-.217 1.241-.534.173-.318.447-1.343.447-1.343"/><path fill="#F9C89A" fill-rule="nonzero" stroke="#000" stroke-width=".5" d="M2.82 6.43l.973.492s-.145.269-.443.308c-.298.038-.635-.203-.645-.405-.01-.202.116-.394.116-.394zm1.483-.086c.096.173.625.674.914.703M5.13 8.356c.202-.049.337-.164.462-.26"/><circle cx="17.658" cy="5.702" r="1" fill="url(#f)" fill-rule="nonzero" stroke="#000" stroke-width=".5"/><circle cx="17.656" cy="5.699" r="1" stroke="#000" stroke-width=".5"/><circle cx="17.543" cy="7.78" r="1" fill="url(#g)" fill-rule="nonzero" stroke="#000" stroke-width=".5"/><circle cx="17.54" cy="7.778" r="1" stroke="#000" stroke-width=".5"/><circle cx="17.427" cy="9.859" r="1" fill="url(#h)" fill-rule="nonzero" stroke="#000" stroke-width=".5"/><circle cx="17.425" cy="9.857" r="1" stroke="#000" stroke-width=".5"/></g><g transform="translate(17.92)"><path fill="#F9C89A" fill-rule="nonzero" stroke="#000" stroke-width=".5" d="M1.344 4.611l-.317-.087s-.174.039-.154.126c.019.086.144.192.134.346-.01.154-.029.452.087.645.116.192.395.481.54.558.143.077.182-.038.182-.038s.135 1.385.173 1.53c.039.144.24.5.568.78.327.279.886.914 1.145 1.106.26.193 1.117.356 1.482-.02.366-.374 1.155-1.24 1.242-1.366.087-.125.337-.423.327-.539a84.343 84.343 0 01-.048-1.395c.058.019.183-.048.25-.106.068-.058.491-.52.482-.722-.01-.202-.135-.76-.087-.799.048-.038.115-.192.029-.23-.087-.04-.597.336-.597.336S6.68 3.42 6.205 3.081c-.474-.34-4.312-.578-4.543-.27-.231.309-.318 1.8-.318 1.8z"/><path fill="#000" fill-rule="nonzero" d="M2.031 6.209l-.113-.246-.166-.661-.502-.731-.059-1.057v-.202l1.39-.452-.402.606-.307.953-.015.442.128.231v.645z"/><path fill="#161616" fill-rule="nonzero" stroke="#000" stroke-width=".5" d="M7.08 4.02c.996.649-.303.461-1.371.1-1.068-.36-3.205-.981-3.696-.996-.49-.014 3.248-.303 3.826-.115.577.187 1.241 1.01 1.241 1.01z"/><path fill="url(#i)" fill-rule="nonzero" stroke="#000" stroke-width=".5" d="M.95 3.004C-.282 2.407-.282 1.637 1.027.81 2.336-.018 4.722-.056 5.839.252 6.955.56 8.687 1.657 8.476 2.735 8.264 3.562 7.3 3.774 7.3 3.774l-6.35-.77z"/><path fill="#03468B" fill-rule="nonzero" stroke="#000" stroke-width=".5" d="M1.06 3.413s-.086-.448-.144-.65c1.776-1.054 5.053-1.082 6.525.708-.043.13-.23.447-.36.548-2.527-1.876-6.02-.606-6.02-.606z"/><path fill="#FFF" fill-rule="nonzero" d="M4.337 2.633l-.029.174-1.183-.101.866-.78-.592-.029.015-.188 1.082.13-.823.708zm1.076-.642c.325.188.433.49.317.75-.115.26-.534.282-.714.224-.18-.057-.6-.332-.404-.765a.567.567 0 01.8-.209zm-.59.326c-.12.266.137.434.248.47.11.035.368.022.439-.137.07-.16.004-.346-.195-.461a.35.35 0 00-.492.128zm1.686 0a.741.741 0 01.395.77c-.048.297-.386.377-.544.34a.679.679 0 01-.467-.775c.06-.291.317-.495.616-.335zm-.423.433c-.05.305.19.452.287.475.097.024.304-.026.333-.208a.454.454 0 00-.242-.473c-.183-.097-.34.027-.378.206z"/><path fill="#000" fill-rule="nonzero" d="M6.452 6.199l.16-.231.066-.808.302-.549.026-.318-.535-.076.126.673-.178.491.033.539z"/><path stroke="#000" stroke-width=".5" d="M6.224 5.025c-.097-.058-.337-.289-.453-.289-.115 0-.433.097-.577.106-.144.01-.587.183-.626.221m-.991.02c-.096 0-.385-.096-.443-.125-.057-.03-.346-.02-.346-.02l-.221-.144-.299.28m1.482.288c.068.038.222.25.212.365-.01.116-.173 1.223-.154 1.252.02.028.375.086.424.048m.259-.116c.068-.01.154-.029.222.059M3.539 5.535c-.164-.346-.828-.346-1.078.01m2.319.019c.077-.423 1.05-.51 1.26-.087"/><circle cx="3.019" cy="5.53" r="1" fill="#000" fill-rule="nonzero"/><circle cx="5.372" cy="5.434" r="1" fill="#000" fill-rule="nonzero"/><path fill="#D8D8D8" fill-rule="nonzero" stroke="#000" stroke-width=".5" d="M3.163 7.643c.462.587 1.838.567 2.154-.097-.106.03-.273.092-.273.092s-.572.024-.697.091c-.087 0-.202.02-.202.02s-.568-.078-.655-.02c-.086.058-.327-.086-.327-.086z"/><path stroke="#000" stroke-width=".5" d="M4.992 8.105c-.308.365-1.097.356-1.415.077"/><path fill="#FCFCFC" fill-rule="nonzero" d="M5.064 5.395l.356.044-.303.134c-.058-.057-.053-.178-.053-.178zm-2.31.115l.356.044-.303.135c-.058-.058-.053-.178-.053-.178z"/><path stroke="#000" stroke-width=".5" d="M7.138 4.784c-.065.116-.253.354-.267.47-.015.115.08.41.072.469m.116-.217c-.015-.08-.065-.296-.145-.34m-5.767-.389c.072.101.44.404.455.527.014.123-.08.31-.05.419.028.108.1.274.1.274m-.238-.383c-.022-.115.007-.368.116-.397"/></g></g><path fill="#FFF" d="M9 34h4v3H9z" mask="url(#b)"/></g></svg>