<svg width="40" height="40" viewBox="0 0 40 40" xmlns="http://www.w3.org/2000/svg"><g fill="none" fill-rule="evenodd"><path d="M40 20v19.894L20 40C8.954 40 0 31.046 0 20S8.954 0 20 0s20 8.954 20 20Z" fill="#F2F8FE" fill-rule="nonzero"/><g transform="translate(7 4)"><rect fill="#466DA1" width="28" height="32" rx="1"/><rect fill="#FFF" x="3" y="5" width="22" height="24" rx="1"/><path d="M14 19a1 1 0 0 1 0 2H6a1 1 0 0 1 0-2h8Zm6-5a1 1 0 0 1 0 2H6a1 1 0 0 1 0-2h14Zm2-5a1 1 0 0 1 0 2H6a1 1 0 0 1 0-2h16Z" fill="#E2E2E2"/><rect fill="#163865" x="10" y="2" width="8" height="1" rx=".5"/></g><g fill-rule="nonzero"><path d="M24.991 26.166a.536.536 0 0 0-.067.157l-.9 3.973a.557.557 0 0 0 .538.678.52.52 0 0 0 .123-.018l3.992-.905c.05-.013.1-.032.145-.058l-3.83-3.827Zm12.834-5.827-3.161-3.161a.557.557 0 0 0-.782 0l-8.482 8.48 3.942 3.942 8.481-8.48a.557.557 0 0 0 .002-.781Z" fill="#F86A70"/><path d="m35.405 21.329-5.687 5.686a.395.395 0 0 1-.557-.557l5.686-5.687a.395.395 0 0 1 .557.557Z" fill="#FFF"/></g></g></svg>