<svg width="40" height="40" viewBox="0 0 40 40" xmlns="http://www.w3.org/2000/svg" xmlns:xlink="http://www.w3.org/1999/xlink"><defs><filter x="-25%" y="-25%" width="150%" height="150%" filterUnits="objectBoundingBox" id="a"><feOffset in="SourceAlpha" result="shadowOffsetOuter1"/><feGaussianBlur stdDeviation="1" in="shadowOffsetOuter1" result="shadowBlurOuter1"/><feColorMatrix values="0 0 0 0 0 0 0 0 0 0 0 0 0 0 0 0 0 0 0.16 0" in="shadowBlurOuter1"/></filter><path d="M6 0C2.685 0 0 2.685 0 6c0 3.316 2.685 6 6 6 3.316 0 6-2.684 6-6 0-3.315-2.684-6-6-6Z" id="b"/></defs><g fill="none" fill-rule="evenodd"><path d="M40 20v19.894L20 40C8.954 40 0 31.046 0 20S8.954 0 20 0s20 8.954 20 20Z" fill="#F2F8FE" fill-rule="nonzero"/><g transform="translate(7 4)"><rect fill="#466DA1" width="28" height="32" rx="1"/><rect fill="#FFF" x="3" y="5" width="22" height="24" rx="1"/><path d="M11.98 19.987H6.5c-.25 0-.499.249-.499.497v3.85c0 .25.25.498.499.498h5.233c.498 0 .747-.248.747-.745v-3.603c0-.248-.25-.497-.499-.497Zm0-9.987H6.5c-.25 0-.499.248-.499.497v7.826c0 .248.25.496.499.496h5.481c.25 0 .499-.248.499-.496v-7.826c0-.249-.25-.497-.499-.497Zm9.521 6.137H14.4c-.248 0-.497.248-.497.497v7.826c0 .248.249.497.497.497h7.102c.25 0 .499-.249.499-.497v-7.826c0-.249-.25-.497-.499-.497Zm0-6.137H14.4c-.248 0-.497.248-.497.497v3.85c0 .25.249.498.497.498h7.102c.25 0 .499-.248.499-.497v-3.85c0-.25-.25-.498-.499-.498Z" fill="#E2E2E2" fill-rule="nonzero"/><rect fill="#163865" x="10" y="2" width="8" height="1" rx=".5"/></g><g fill-rule="nonzero"><g transform="translate(25 8)"><use fill="#000" filter="url(#a)" xlink:href="#b"/><use fill="#F86A70" xlink:href="#b"/></g><path d="M31.697 16.694a.23.23 0 0 1-.163.067h-1.072a.23.23 0 0 1-.23-.231l.008-1.771-1.772.007a.23.23 0 0 1-.23-.23v-1.073a.23.23 0 0 1 .23-.23l1.772.008-.007-1.772a.23.23 0 0 1 .23-.23h1.074a.23.23 0 0 1 .23.23l-.01 1.772 1.773-.007a.23.23 0 0 1 .23.23v1.074a.23.23 0 0 1-.23.23l-1.772-.01.007 1.773a.23.23 0 0 1-.068.163Z" fill="#FFF"/></g></g></svg>