<svg width="40" height="40" viewBox="0 0 40 40" xmlns="http://www.w3.org/2000/svg"><g fill="none" fill-rule="evenodd"><path d="M40 20v19.894L20 40C8.954 40 0 31.046 0 20S8.954 0 20 0s20 8.954 20 20Z" fill="#F2F8FE" fill-rule="nonzero"/><path d="M8 4h16.066a2 2 0 0 1 1.441.613l6.933 7.198a2 2 0 0 1 .56 1.387V37a1 1 0 0 1-1 1H8a1 1 0 0 1-1-1V5a1 1 0 0 1 1-1Z" fill="#466DA1"/><path d="M11 7h11.814l.066 4.593a2 2 0 0 0 1.86 1.967l5.26.367V34a1 1 0 0 1-1 1H11a1 1 0 0 1-1-1V8a1 1 0 0 1 1-1Z" fill="#FFF"/><path d="M15.889 13h1.555v1.556H15.89v3.888c0 .86-.697 1.556-1.556 1.556.86 0 1.556.696 1.556 1.556v3.888h1.555V27H15.89c-.832-.21-1.556-.7-1.556-1.556v-3.11a1.556 1.556 0 0 0-1.555-1.556H12v-1.556h.778c.859 0 1.555-.696 1.555-1.555v-3.111c0-.86.697-1.556 1.556-1.556m5.444 4.083a.778.778 0 1 1 0 1.556.778.778 0 0 1 0-1.556m-3.11 0a.778.778 0 1 1 0 1.556.778.778 0 0 1 0-1.556m6.221 0a.778.778 0 1 1 0 1.556.778.778 0 0 1 0-1.556Z" fill="#E2E2E2" fill-rule="nonzero"/><rect fill="#F86A70" x="20" y="22" width="20" height="10" rx="1"/><path d="M23.494 29.554v-1.818L25.299 25h-.835l-1.314 2.086L21.836 25H21l1.805 2.736v1.818h.689Zm2.577 0 .427-1.173h1.958l.428 1.173h.746L27.876 25h-.791l-1.754 4.554h.74Zm2.175-1.747h-1.537l.759-2.06h.025l.753 2.06Zm2.526 1.747v-3.253h.025l1.397 3.253h.6l1.397-3.253h.025v3.253h.695V25h-.822l-1.582 3.648h-.02L30.9 25h-.822v4.554h.695Zm8.228 0v-.593h-2.507V25h-.689v4.554H39Z" fill="#FFF" fill-rule="nonzero"/></g></svg>