<svg width="1160" height="100" viewBox="0 0 1160 100" xmlns="http://www.w3.org/2000/svg" xmlns:xlink="http://www.w3.org/1999/xlink"><defs><linearGradient x1="14.942%" y1="0%" x2="83.161%" y2="96.984%" id="b"><stop stop-color="#FFF" offset="0%"/><stop stop-color="#FFF" stop-opacity="0" offset="100%"/></linearGradient><linearGradient x1="14.942%" y1="0%" x2="83.161%" y2="96.984%" id="d"><stop stop-color="#FFF" stop-opacity="0" offset="0%"/><stop stop-color="#FFF" offset="100%"/></linearGradient><linearGradient x1="56.396%" y1="-7.466%" x2="56.396%" y2="96.489%" id="e"><stop stop-color="#FFF" offset="0%"/><stop stop-color="#FFF" stop-opacity=".22" offset="100%"/></linearGradient><path id="a" d="M0 0h1160v100H0z"/></defs><g fill="none" fill-rule="evenodd"><mask id="c" fill="#fff"><use xlink:href="#a"/></mask><circle fill="url(#b)" fill-rule="nonzero" opacity=".2" mask="url(#c)" cx="36" cy="114" r="64"/><circle fill="url(#d)" fill-rule="nonzero" opacity=".1" mask="url(#c)" cx="707" cy="-25" r="64"/><circle fill="url(#b)" fill-rule="nonzero" opacity=".15" mask="url(#c)" cx="297.5" cy="23.5" r="17.5"/><circle fill="url(#b)" fill-rule="nonzero" opacity=".15" mask="url(#c)" cx="1029" cy="15" r="9"/><g opacity=".6" mask="url(#c)"><g stroke="#FFF" opacity=".2"><path d="M368.815-57.48c1.262 54.104 30.914 96.954 90.684 119.126 144.942 53.767 412.112-34.434 596.741-197 83.623-73.631 135.971-149.889 154.754-216.285"/><path d="M365.213-66.865c1.262 54.104 30.914 96.955 90.683 119.127 144.942 53.767 412.113-34.434 596.742-197.001 83.623-73.63 135.971-149.888 154.753-216.284"/><path d="M361.61-76.25c1.263 54.105 30.914 96.956 90.684 119.128 144.942 53.766 412.112-34.434 596.742-197.001 83.623-73.63 135.97-149.888 154.753-216.284"/><path d="M358.008-85.634c1.262 54.105 30.914 96.956 90.684 119.128C593.634 87.26 860.804-.94 1045.434-163.507c83.622-73.63 135.97-149.888 154.753-216.284"/><path d="M354.406-95.018C355.668-40.913 385.32 1.938 445.09 24.11c144.942 53.767 412.112-34.433 596.741-197 83.623-73.631 135.971-149.888 154.754-216.284"/><path d="M350.804-104.402c1.262 54.105 30.913 96.955 90.683 119.127 144.942 53.767 412.113-34.434 596.742-197 83.623-73.631 135.971-149.889 154.753-216.285"/><path d="M347.201-113.786c1.263 54.104 30.914 96.955 90.684 119.127 144.942 53.767 412.112-34.434 596.742-197.001 83.623-73.63 135.97-149.888 154.753-216.284"/><path d="M372.417-48.097C373.68 6.008 403.331 48.86 463.101 71.03c144.942 53.767 412.112-34.433 596.742-197 83.622-73.631 135.97-149.888 154.753-216.284"/><path d="M376.02-38.713c1.262 54.105 30.913 96.956 90.683 119.128 144.942 53.766 412.112-34.434 596.742-197.001 83.623-73.63 135.97-149.888 154.753-216.284"/><path d="M379.622-29.328c1.262 54.104 30.914 96.955 90.683 119.127 144.942 53.766 412.113-34.434 596.742-197.001 83.623-73.63 135.971-149.888 154.753-216.284"/><path d="M383.224-19.944c1.262 54.104 30.914 96.955 90.684 119.127C618.85 152.95 886.02 64.749 1070.649-97.818c83.623-73.63 135.971-149.888 154.754-216.284"/><path d="M386.826-10.56c1.263 54.105 30.914 96.956 90.684 119.127 144.942 53.767 412.112-34.434 596.742-197 83.623-73.631 135.97-149.889 154.753-216.284"/><path d="M390.428-1.176c1.263 54.105 30.914 96.956 90.684 119.127 144.942 53.767 412.113-34.433 596.742-197 83.623-73.631 135.97-149.888 154.753-216.284"/></g></g><path d="M1089 15c28.719 0 52 22.386 52 50v49.735h-22.655V64.768c.077-13.682-10.24-25.372-24.292-27.524-14.052-2.153-27.636 5.875-31.984 18.903l-8.586 4.045 7.207 5.77c.793 13.693 5.793 36.472 47.413 49.038H1089c-28.719 0-52-22.386-52-50s23.281-50 52-50Zm-11.321 46.428c1.588 0 3.11.57 4.226 1.583 1.116 1.012 1.734 2.383 1.715 3.806-.02 2.959-2.71 5.343-6.012 5.326-3.3-.018-5.96-2.43-5.941-5.389.02-2.958 2.71-5.343 6.012-5.326Z" fill="url(#e)" fill-rule="nonzero" opacity=".16" mask="url(#c)"/></g></svg>