<svg width="1920" height="218" viewBox="0 0 1920 218" xmlns="http://www.w3.org/2000/svg" xmlns:xlink="http://www.w3.org/1999/xlink"><defs><linearGradient x1="52.096%" y1="50.134%" x2="46.659%" y2="49.785%" id="c"><stop stop-color="#4A278B" stop-opacity="0" offset="0%"/><stop stop-color="#4A278B" offset="100%"/></linearGradient><linearGradient x1="50.206%" y1="50.04%" x2="49.673%" y2="49.689%" id="d"><stop stop-color="#4A278B" stop-opacity="0" offset="0%"/><stop stop-color="#4A278B" offset="100%"/></linearGradient><linearGradient x1="50.207%" y1="50.044%" x2="49.674%" y2="49.694%" id="e"><stop stop-color="#4A278B" stop-opacity="0" offset="0%"/><stop stop-color="#4A278B" offset="100%"/></linearGradient><linearGradient x1="50.207%" y1="50.035%" x2="49.674%" y2="49.685%" id="f"><stop stop-color="#2A258A" stop-opacity="0" offset="0%"/><stop stop-color="#2A258A" stop-opacity=".34" offset="31%"/><stop stop-color="#2A258A" stop-opacity=".81" offset="78%"/><stop stop-color="#2A258A" offset="100%"/></linearGradient><linearGradient x1="50.204%" y1="50.035%" x2="49.67%" y2="49.686%" id="g"><stop stop-color="#2A258A" stop-opacity="0" offset="0%"/><stop stop-color="#2A258A" stop-opacity=".34" offset="31%"/><stop stop-color="#2A258A" stop-opacity=".81" offset="78%"/><stop stop-color="#2A258A" offset="100%"/></linearGradient><linearGradient x1="50.209%" y1="50.035%" x2="49.676%" y2="49.686%" id="h"><stop stop-color="#2A258A" stop-opacity="0" offset="0%"/><stop stop-color="#2A258A" stop-opacity=".34" offset="31%"/><stop stop-color="#2A258A" stop-opacity=".81" offset="78%"/><stop stop-color="#2A258A" offset="100%"/></linearGradient><linearGradient x1="50.202%" y1="50.035%" x2="49.669%" y2="49.686%" id="i"><stop stop-color="#2A258A" stop-opacity="0" offset="0%"/><stop stop-color="#2A258A" stop-opacity=".34" offset="31%"/><stop stop-color="#2A258A" stop-opacity=".81" offset="78%"/><stop stop-color="#2A258A" offset="100%"/></linearGradient><linearGradient x1="50.035%" y1="50.031%" x2="49.939%" y2="49.681%" id="j"><stop stop-color="#2A258A" stop-opacity="0" offset="0%"/><stop stop-color="#2A258A" stop-opacity=".34" offset="31%"/><stop stop-color="#2A258A" stop-opacity=".81" offset="78%"/><stop stop-color="#2A258A" offset="100%"/></linearGradient><linearGradient x1="50.27%" y1="50.035%" x2="49.575%" y2="49.686%" id="k"><stop stop-color="#2A258A" stop-opacity="0" offset="0%"/><stop stop-color="#2A258A" stop-opacity=".34" offset="31%"/><stop stop-color="#2A258A" stop-opacity=".81" offset="78%"/><stop stop-color="#2A258A" offset="100%"/></linearGradient><linearGradient x1="50.208%" y1="50.039%" x2="49.674%" y2="49.691%" id="l"><stop stop-color="#4A278B" stop-opacity="0" offset="0%"/><stop stop-color="#4A278B" offset="100%"/></linearGradient><linearGradient x1="50.203%" y1="50.068%" x2="49.67%" y2="49.719%" id="m"><stop stop-color="#4A278B" stop-opacity="0" offset="0%"/><stop stop-color="#4A278B" offset="100%"/></linearGradient><linearGradient x1="50.203%" y1="50.067%" x2="49.669%" y2="49.718%" id="n"><stop stop-color="#4A278B" stop-opacity="0" offset="0%"/><stop stop-color="#4A278B" offset="100%"/></linearGradient><linearGradient x1="50.09%" y1="50.068%" x2="49.86%" y2="49.719%" id="o"><stop stop-color="#4A278B" stop-opacity="0" offset="0%"/><stop stop-color="#4A278B" offset="100%"/></linearGradient><linearGradient x1="50.205%" y1="50.042%" x2="49.672%" y2="49.693%" id="p"><stop stop-color="#4A278B" stop-opacity="0" offset="0%"/><stop stop-color="#4A278B" offset="100%"/></linearGradient><linearGradient x1="50.071%" y1="50.042%" x2="49.9%" y2="49.692%" id="q"><stop stop-color="#4A278B" stop-opacity="0" offset="0%"/><stop stop-color="#4A278B" offset="100%"/></linearGradient><linearGradient x1="50.038%" y1="50.051%" x2="49.938%" y2="49.702%" id="r"><stop stop-color="#4A278B" stop-opacity="0" offset="0%"/><stop stop-color="#4A278B" offset="100%"/></linearGradient><linearGradient x1="-25.547%" y1="-57.81%" x2="101.109%" y2="100%" id="s"><stop stop-color="#333" stop-opacity="0" offset="0%"/><stop stop-color="#A4529D" offset="100%"/></linearGradient><linearGradient x1="-26.453%" y1="-39.263%" x2="101.109%" y2="100%" id="t"><stop stop-color="#333" stop-opacity="0" offset="0%"/><stop stop-color="#A4529D" offset="100%"/></linearGradient><linearGradient x1="16.12%" y1="0%" x2="101.109%" y2="100%" id="u"><stop stop-color="#333" stop-opacity="0" offset="0%"/><stop stop-color="#A4529D" offset="100%"/></linearGradient><linearGradient x1="-9.769%" y1="-15.395%" x2="101.109%" y2="100%" id="v"><stop stop-color="#333" stop-opacity="0" offset="0%"/><stop stop-color="#A4529D" offset="100%"/></linearGradient><linearGradient x1="112.906%" y1="50%" x2="-31.672%" y2="50%" id="w"><stop stop-color="#3A1138" stop-opacity="0" offset="0%"/><stop stop-color="#AF3BA8" offset="100%"/></linearGradient><linearGradient x1="50.004%" y1="99.995%" x2="50.004%" y2="0%" id="x"><stop stop-color="#236159" offset="0%"/><stop stop-color="#315B76" offset="32%"/><stop stop-color="#3B5FA0" offset="73%"/><stop stop-color="#493993" offset="100%"/></linearGradient><linearGradient x1="36.734%" y1="31.371%" x2="100.572%" y2="100%" id="y"><stop stop-color="#333" stop-opacity="0" offset="0%"/><stop stop-color="#B015A3" offset="100%"/></linearGradient><linearGradient x1="50.034%" y1="99.99%" x2="50.034%" y2="0%" id="z"><stop stop-color="#2C2361" offset="0%"/><stop stop-color="#4D2B85" offset="32%"/><stop stop-color="#743097" offset="73%"/><stop stop-color="#653993" offset="100%"/></linearGradient><linearGradient x1="50%" y1="100.298%" x2="50%" y2="6.744%" id="A"><stop stop-color="#853A9D" offset="0%"/><stop stop-color="#AF33B3" offset="29.595%"/><stop stop-color="#AB3AD9" offset="68.322%"/><stop stop-color="#882B8D" offset="100%"/></linearGradient><linearGradient x1="50%" y1="100.298%" x2="50%" y2="6.744%" id="B"><stop stop-color="#3A689D" offset="0%"/><stop stop-color="#4C69AC" offset="28%"/><stop stop-color="#6192BC" offset="68.322%"/><stop stop-color="#69A9C2" offset="100%"/></linearGradient><linearGradient x1="50%" y1="97.767%" x2="50%" y2="7%" id="C"><stop stop-color="#19474A" offset="0%"/><stop stop-color="#21535A" offset="47.919%"/><stop stop-color="#2A6973" offset="100%"/></linearGradient><linearGradient x1="53.802%" y1="83.304%" x2="50%" y2="-28.238%" id="D"><stop stop-color="#64295B" offset="0%"/><stop stop-color="#8D3985" offset="41%"/><stop stop-color="#903B92" offset="100%"/></linearGradient><linearGradient x1="53.79%" y1="83.304%" x2="50%" y2="-28.238%" id="E"><stop stop-color="#64295B" offset="0%"/><stop stop-color="#8D3985" offset="41%"/><stop stop-color="#903B92" offset="100%"/></linearGradient><linearGradient x1="50%" y1="100.298%" x2="50%" y2="6.744%" id="F"><stop stop-color="#803477" offset="0%"/><stop stop-color="#82357A" offset="26.386%"/><stop stop-color="#8E3A89" offset="100%"/></linearGradient><linearGradient x1="50%" y1="102.957%" x2="50%" y2="-2.918%" id="G"><stop stop-color="#3A9D84" offset="0%"/><stop stop-color="#4CAC97" offset="28%"/><stop stop-color="#61BCAC" offset="67%"/><stop stop-color="#69C2B4" offset="93%"/></linearGradient><path id="a" d="M0 0h1920v218H0z"/><path id="H" d="M0 0h1200v218H0z"/></defs><g fill="none" fill-rule="evenodd"><path fill="#333" d="M0 0h1920v218H0z"/><mask id="b" fill="#fff"><use xlink:href="#a"/></mask><use fill="#333" xlink:href="#a"/><g fill-rule="nonzero" mask="url(#b)" opacity=".7"><path fill="url(#c)" opacity=".5" style="mix-blend-mode:multiply" transform="rotate(135 1202.512 281.905)" d="M1143.54 216.903h154.67v810.67h-154.67z"/><path fill="url(#d)" opacity=".5" style="mix-blend-mode:multiply" transform="rotate(135 968.742 364.997)" d="M948.755 64.22h76.7v1282.22h-76.7z"/><path fill="url(#e)" opacity=".5" style="mix-blend-mode:multiply" transform="rotate(135 1050.068 222.346)" d="M1030.082-78.431h76.7v1282.22h-76.7z"/><path fill="url(#f)" opacity=".5" style="mix-blend-mode:screen" transform="rotate(135 1092.745 301.003)" d="M1072.758.226h76.7v1282.22h-76.7z"/><path fill="url(#g)" opacity=".5" style="mix-blend-mode:screen" transform="rotate(135 810.956 580.12)" d="M790.969 279.344h76.7v1282.22h-76.7z"/><path fill="url(#h)" opacity=".5" style="mix-blend-mode:screen" transform="rotate(135 1250.956 140.115)" d="M1230.969-160.662h76.7v1282.22h-76.7z"/><path fill="url(#i)" opacity=".5" style="mix-blend-mode:screen" transform="rotate(135 694.523 696.562)" d="M674.536 395.785h76.7v1282.22h-76.7z"/><path fill="url(#j)" opacity=".5" style="mix-blend-mode:screen" transform="rotate(135 1025.783 365.305)" d="M1028.106 64.528h32.08v1282.22h-32.08z"/><path fill="url(#k)" opacity=".5" style="mix-blend-mode:screen" transform="rotate(135 922.07 469)" d="M896.738 168.223h87.39v1282.22h-87.39z"/><path fill="url(#l)" opacity=".5" style="mix-blend-mode:multiply" transform="rotate(135 1123.408 202.34)" d="M1103.422-98.437h76.7v1282.22h-76.7z"/><path fill="url(#m)" opacity=".5" style="mix-blend-mode:multiply" transform="rotate(135 556.745 405.004)" d="M536.759 104.227h76.7v1282.22h-76.7z"/><path fill="url(#n)" opacity=".5" style="mix-blend-mode:multiply" transform="rotate(135 526.069 442.338)" d="M506.082 141.561h76.7v1282.22h-76.7z"/><path fill="url(#o)" opacity=".5" style="mix-blend-mode:multiply" transform="rotate(135 452.739 515.684)" d="M445.972 214.907h50.26v1282.22h-50.26z"/><path fill="url(#p)" opacity=".5" style="mix-blend-mode:multiply" transform="rotate(135 891.406 401)" d="M871.42 100.223h76.7v1282.22h-76.7z"/><path fill="url(#q)" opacity=".5" style="mix-blend-mode:multiply" transform="rotate(135 785.76 511.657)" d="M782.634 210.88h42.98V1493.1h-42.98z"/><path fill="url(#r)" opacity=".5" style="mix-blend-mode:multiply" transform="rotate(135 826.735 355.005)" d="M828.428 54.229h33.34v1282.22h-33.34z"/></g><g fill-rule="nonzero" mask="url(#b)" opacity=".7"><path fill="url(#c)" opacity=".5" style="mix-blend-mode:multiply" transform="rotate(135 1848.012 549.28)" d="M1143.54 216.903h154.67v810.67h-154.67z"/><path fill="url(#d)" opacity=".5" style="mix-blend-mode:multiply" transform="rotate(135 1614.242 632.371)" d="M948.755 64.22h76.7v1282.22h-76.7z"/><path fill="url(#e)" opacity=".5" style="mix-blend-mode:multiply" transform="rotate(135 1695.568 489.72)" d="M1030.082-78.431h76.7v1282.22h-76.7z"/><path fill="url(#f)" opacity=".5" style="mix-blend-mode:screen" transform="rotate(135 1738.245 568.377)" d="M1072.758.226h76.7v1282.22h-76.7z"/><path fill="url(#g)" opacity=".5" style="mix-blend-mode:screen" transform="rotate(135 1456.456 847.495)" d="M790.969 279.344h76.7v1282.22h-76.7z"/><path fill="url(#h)" opacity=".5" style="mix-blend-mode:screen" transform="rotate(135 1896.456 407.49)" d="M1230.969-160.662h76.7v1282.22h-76.7z"/><path fill="url(#i)" opacity=".5" style="mix-blend-mode:screen" transform="rotate(135 1340.023 963.937)" d="M674.536 395.785h76.7v1282.22h-76.7z"/><path fill="url(#j)" opacity=".5" style="mix-blend-mode:screen" transform="rotate(135 1671.283 632.68)" d="M1028.106 64.528h32.08v1282.22h-32.08z"/><path fill="url(#k)" opacity=".5" style="mix-blend-mode:screen" transform="rotate(135 1567.57 736.375)" d="M896.738 168.223h87.39v1282.22h-87.39z"/><path fill="url(#l)" opacity=".5" style="mix-blend-mode:multiply" transform="rotate(135 1768.908 469.715)" d="M1103.422-98.437h76.7v1282.22h-76.7z"/><path fill="url(#m)" opacity=".5" style="mix-blend-mode:multiply" transform="rotate(135 1202.245 672.38)" d="M536.759 104.227h76.7v1282.22h-76.7z"/><path fill="url(#n)" opacity=".5" style="mix-blend-mode:multiply" transform="rotate(135 1171.569 709.713)" d="M506.082 141.561h76.7v1282.22h-76.7z"/><path fill="url(#o)" opacity=".5" style="mix-blend-mode:multiply" transform="rotate(135 1098.239 783.059)" d="M445.972 214.907h50.26v1282.22h-50.26z"/><path fill="url(#p)" opacity=".5" style="mix-blend-mode:multiply" transform="rotate(135 1536.906 668.375)" d="M871.42 100.223h76.7v1282.22h-76.7z"/><path fill="url(#q)" opacity=".5" style="mix-blend-mode:multiply" transform="rotate(135 1431.26 779.032)" d="M782.634 210.88h42.98V1493.1h-42.98z"/><path fill="url(#r)" opacity=".5" style="mix-blend-mode:multiply" transform="rotate(135 1472.235 622.38)" d="M828.428 54.229h33.34v1282.22h-33.34z"/></g><g mask="url(#b)"><path stroke="url(#s)" d="M76.353.353 217.39 141.39" transform="translate(988 -7)"/><path stroke="url(#t)" d="m63.687.353 112.11 112.111" transform="translate(988 -7)"/><path stroke="url(#u)" d="M51.02.353 90.427 39.76" transform="translate(988 -7)"/><path stroke="url(#v)" d="M38.353.353 124.02 86.02" transform="translate(988 -7)"/><path stroke="url(#u)" d="M25.687.353 65.094 39.76M13.02.353 52.427 39.76M.353.353 39.76 39.76" transform="translate(988 -7)"/></g><g mask="url(#b)"><path d="M310.12 119.37h-4.34m9 2.71h-9m13.74 2.71h-13.74m18.44 2.71h-18.44m23.14 2.72h-23.14m27.84 2.71h-27.84m32.53 2.71h-32.53m37.26 2.71h-37.26m41.92 2.71h-41.92m46.63 2.72h-46.63m51.32 2.71h-51.32m56 2.71h-56m60.72 2.72h-60.72m65.42 2.71h-65.42m70.11 2.71h-70.11m74.81 2.71h-74.81m79.51 2.71h-79.51m84.26 2.72h-84.26m88.91 2.69h-88.91m93.61 2.71h-93.61m98.31 2.72h-98.31m103 2.7h-103m98.26 2.76h-98.26m93.52 2.74h-93.52m88.79 2.73h-88.79m84.05 2.73h-84.05M385.1 190h-79.32m74.58 2.73h-74.58m69.85 2.73h-69.85m65.11 2.71h-65.11m60.38 2.73h-60.38m55.64 2.73h-55.64m50.9 2.74h-50.9m46.17 2.8h-46.17m41.43 2.73h-41.43m36.7 2.73h-36.7m32 2.74h-32m27.26 2.7h-27.26m22.49 2.74h-22.49m17.76 2.73h-17.76m13 2.73h-13m8.29 2.74h-8.29m3.55 2.74h-3.55" stroke="url(#w)" stroke-width="1.05" style="mix-blend-mode:screen" transform="rotate(-134 559.83 35.114)"/><g opacity=".5" style="mix-blend-mode:screen"><path d="M375.498 76c51.287.005 95.428 36.253 105.43 86.577 10 50.323-16.923 100.706-64.307 120.339-47.384 19.632-102.031 3.045-130.523-39.617-28.492-42.663-22.894-99.519 13.372-135.799A106.784 106.784 0 0 1 375.498 76m0-40c-59.658-.004-113.445 35.945-136.278 91.084-22.833 55.14-10.216 118.61 31.968 160.813 42.183 42.204 105.625 54.83 160.743 31.992 55.117-22.84 91.055-76.646 91.055-136.329 0-81.491-66.031-147.554-147.488-147.56z" fill="url(#x)" fill-rule="nonzero" transform="translate(445 -94)"/><g transform="translate(445 -94)"><path stroke="url(#y)" d="m0 .5 189 190M11 25.5l189 190"/><path d="M46.914 13.09a34.004 34.004 0 1 1-34.005 34.004c.018-18.773 15.232-33.987 34.005-34.005m0-12.65a46.655 46.655 0 1 0 46.624 46.655C93.534 21.332 72.653.447 46.89.439h.024z" opacity=".5" transform="translate(62 62.5)" fill="url(#z)" fill-rule="nonzero"/><ellipse stroke="url(#A)" transform="rotate(-76.34 108.52 109.258)" cx="108.52" cy="109.258" rx="50.087" ry="49.945"/></g></g></g><g mask="url(#b)"><g transform="translate(654 -80)"><circle stroke="url(#B)" stroke-width="2" opacity=".6" cx="168" cy="168" r="168"/><circle fill="url(#C)" fill-rule="nonzero" cx="334.67" cy="170.67" r="20"/></g></g><g mask="url(#b)" fill-rule="nonzero"><path d="M18.467 7.78a10.732 10.732 0 0 0-15.296 0A11.002 11.002 0 0 0 0 15.518a11 11 0 0 0 3.17 7.738 10.746 10.746 0 0 0 7.65 3.208c2.868 0 5.62-1.154 7.647-3.208 4.222-4.275 4.222-11.202 0-15.476z" fill="url(#D)" opacity=".5" transform="translate(614 177)"/><path fill="url(#E)" opacity=".7" d="M58 15.524 42.703 31 27.407 15.524 42.703 0z" transform="translate(614 177)"/></g><path d="M416.371 5.5c-3.059-3.038-8.018-3.038-11.077 0a7.742 7.742 0 0 0 0 11c3.06 3.038 8.018 3.038 11.077 0a7.74 7.74 0 0 0 0-11zM445 11l-11.077 11-11.076-11 11.076-11L445 11z" stroke="url(#F)" stroke-width="2" opacity=".4" mask="url(#b)"/><g transform="translate(1003 142)" opacity=".7" stroke="url(#G)" stroke-width="3"><path opacity=".25" d="M1.028 30.267 31.145.097l30.117 30.17-30.117 30.17z"/><path opacity=".4" d="M15.114 30.27 45.23.1l30.117 30.17L45.23 60.44z"/></g><mask id="I" fill="#fff"><use xlink:href="#H"/></mask><use fill="#333" xlink:href="#H"/><g fill-rule="nonzero" mask="url(#I)" opacity=".7"><path fill="url(#c)" opacity=".5" style="mix-blend-mode:multiply" transform="rotate(135 1202.512 281.905)" d="M1143.54 216.903h154.67v810.67h-154.67z"/><path fill="url(#d)" opacity=".5" style="mix-blend-mode:multiply" transform="rotate(135 968.742 364.997)" d="M948.755 64.22h76.7v1282.22h-76.7z"/><path fill="url(#e)" opacity=".5" style="mix-blend-mode:multiply" transform="rotate(135 1050.068 222.346)" d="M1030.082-78.431h76.7v1282.22h-76.7z"/><path fill="url(#f)" opacity=".5" style="mix-blend-mode:screen" transform="rotate(135 1092.745 301.003)" d="M1072.758.226h76.7v1282.22h-76.7z"/><path fill="url(#g)" opacity=".5" style="mix-blend-mode:screen" transform="rotate(135 810.956 580.12)" d="M790.969 279.344h76.7v1282.22h-76.7z"/><path fill="url(#h)" opacity=".5" style="mix-blend-mode:screen" transform="rotate(135 1250.956 140.115)" d="M1230.969-160.662h76.7v1282.22h-76.7z"/><path fill="url(#i)" opacity=".5" style="mix-blend-mode:screen" transform="rotate(135 694.523 696.562)" d="M674.536 395.785h76.7v1282.22h-76.7z"/><path fill="url(#j)" opacity=".5" style="mix-blend-mode:screen" transform="rotate(135 1025.783 365.305)" d="M1028.106 64.528h32.08v1282.22h-32.08z"/><path fill="url(#k)" opacity=".5" style="mix-blend-mode:screen" transform="rotate(135 922.07 469)" d="M896.738 168.223h87.39v1282.22h-87.39z"/><path fill="url(#l)" opacity=".5" style="mix-blend-mode:multiply" transform="rotate(135 1123.408 202.34)" d="M1103.422-98.437h76.7v1282.22h-76.7z"/><path fill="url(#m)" opacity=".5" style="mix-blend-mode:multiply" transform="rotate(135 556.745 405.004)" d="M536.759 104.227h76.7v1282.22h-76.7z"/><path fill="url(#n)" opacity=".5" style="mix-blend-mode:multiply" transform="rotate(135 526.069 442.338)" d="M506.082 141.561h76.7v1282.22h-76.7z"/><path fill="url(#o)" opacity=".5" style="mix-blend-mode:multiply" transform="rotate(135 452.739 515.684)" d="M445.972 214.907h50.26v1282.22h-50.26z"/><path fill="url(#p)" opacity=".5" style="mix-blend-mode:multiply" transform="rotate(135 891.406 401)" d="M871.42 100.223h76.7v1282.22h-76.7z"/><path fill="url(#q)" opacity=".5" style="mix-blend-mode:multiply" transform="rotate(135 785.76 511.657)" d="M782.634 210.88h42.98V1493.1h-42.98z"/><path fill="url(#r)" opacity=".5" style="mix-blend-mode:multiply" transform="rotate(135 826.735 355.005)" d="M828.428 54.229h33.34v1282.22h-33.34z"/></g><g mask="url(#I)"><path stroke="url(#s)" d="M76.353.353 217.39 141.39" transform="translate(988 -7)"/><path stroke="url(#t)" d="m63.687.353 112.11 112.111" transform="translate(988 -7)"/><path stroke="url(#u)" d="M51.02.353 90.427 39.76" transform="translate(988 -7)"/><path stroke="url(#v)" d="M38.353.353 124.02 86.02" transform="translate(988 -7)"/><path stroke="url(#u)" d="M25.687.353 65.094 39.76M13.02.353 52.427 39.76M.353.353 39.76 39.76" transform="translate(988 -7)"/></g><g mask="url(#I)"><path d="M310.12 119.37h-4.34m9 2.71h-9m13.74 2.71h-13.74m18.44 2.71h-18.44m23.14 2.72h-23.14m27.84 2.71h-27.84m32.53 2.71h-32.53m37.26 2.71h-37.26m41.92 2.71h-41.92m46.63 2.72h-46.63m51.32 2.71h-51.32m56 2.71h-56m60.72 2.72h-60.72m65.42 2.71h-65.42m70.11 2.71h-70.11m74.81 2.71h-74.81m79.51 2.71h-79.51m84.26 2.72h-84.26m88.91 2.69h-88.91m93.61 2.71h-93.61m98.31 2.72h-98.31m103 2.7h-103m98.26 2.76h-98.26m93.52 2.74h-93.52m88.79 2.73h-88.79m84.05 2.73h-84.05M385.1 190h-79.32m74.58 2.73h-74.58m69.85 2.73h-69.85m65.11 2.71h-65.11m60.38 2.73h-60.38m55.64 2.73h-55.64m50.9 2.74h-50.9m46.17 2.8h-46.17m41.43 2.73h-41.43m36.7 2.73h-36.7m32 2.74h-32m27.26 2.7h-27.26m22.49 2.74h-22.49m17.76 2.73h-17.76m13 2.73h-13m8.29 2.74h-8.29m3.55 2.74h-3.55" stroke="url(#w)" stroke-width="1.05" style="mix-blend-mode:screen" transform="rotate(-134 559.83 35.114)"/><g opacity=".5" style="mix-blend-mode:screen"><path d="M375.498 76c51.287.005 95.428 36.253 105.43 86.577 10 50.323-16.923 100.706-64.307 120.339-47.384 19.632-102.031 3.045-130.523-39.617-28.492-42.663-22.894-99.519 13.372-135.799A106.784 106.784 0 0 1 375.498 76m0-40c-59.658-.004-113.445 35.945-136.278 91.084-22.833 55.14-10.216 118.61 31.968 160.813 42.183 42.204 105.625 54.83 160.743 31.992 55.117-22.84 91.055-76.646 91.055-136.329 0-81.491-66.031-147.554-147.488-147.56z" fill="url(#x)" fill-rule="nonzero" transform="translate(445 -94)"/><g transform="translate(445 -94)"><path stroke="url(#y)" d="m0 .5 189 190M11 25.5l189 190"/><path d="M46.914 13.09a34.004 34.004 0 1 1-34.005 34.004c.018-18.773 15.232-33.987 34.005-34.005m0-12.65a46.655 46.655 0 1 0 46.624 46.655C93.534 21.332 72.653.447 46.89.439h.024z" opacity=".5" transform="translate(62 62.5)" fill="url(#z)" fill-rule="nonzero"/><ellipse stroke="url(#A)" transform="rotate(-76.34 108.52 109.258)" cx="108.52" cy="109.258" rx="50.087" ry="49.945"/></g></g></g><g mask="url(#I)"><g transform="translate(654 -80)"><circle stroke="url(#B)" stroke-width="2" opacity=".6" cx="168" cy="168" r="168"/><circle fill="url(#C)" fill-rule="nonzero" cx="334.67" cy="170.67" r="20"/></g></g><g mask="url(#I)" fill-rule="nonzero"><path d="M18.467 7.78a10.732 10.732 0 0 0-15.296 0A11.002 11.002 0 0 0 0 15.518a11 11 0 0 0 3.17 7.738 10.746 10.746 0 0 0 7.65 3.208c2.868 0 5.62-1.154 7.647-3.208 4.222-4.275 4.222-11.202 0-15.476z" fill="url(#D)" opacity=".5" transform="translate(614 177)"/><path fill="url(#E)" opacity=".7" d="M58 15.524 42.703 31 27.407 15.524 42.703 0z" transform="translate(614 177)"/></g><path d="M416.371 5.5c-3.059-3.038-8.018-3.038-11.077 0a7.742 7.742 0 0 0 0 11c3.06 3.038 8.018 3.038 11.077 0a7.74 7.74 0 0 0 0-11zM445 11l-11.077 11-11.076-11 11.076-11L445 11z" stroke="url(#F)" stroke-width="2" opacity=".4" mask="url(#I)"/><g transform="translate(1003 142)" opacity=".7" stroke="url(#G)" stroke-width="3"><path opacity=".25" d="M1.028 30.267 31.145.097l30.117 30.17-30.117 30.17z"/><path opacity=".4" d="M15.114 30.27 45.23.1l30.117 30.17L45.23 60.44z"/></g></g></svg>