<svg width="800" height="140" viewBox="0 0 800 140" xmlns="http://www.w3.org/2000/svg" xmlns:xlink="http://www.w3.org/1999/xlink"><defs><linearGradient x1="100%" y1="50.918%" x2="2.734%" y2="50.116%" id="b"><stop stop-color="#66AFF9" offset="0%"/><stop stop-color="#007AF5" offset="100%"/></linearGradient><linearGradient x1="50%" y1="0%" x2="50%" y2="83.267%" id="d"><stop stop-color="#FFF" stop-opacity="0" offset="0%"/><stop stop-color="#68FFFF" stop-opacity=".16" offset="100%"/></linearGradient><linearGradient x1="50%" y1="0%" x2="50%" y2="91.263%" id="e"><stop stop-color="#FFF" stop-opacity="0" offset="0%"/><stop stop-color="#68FFFF" stop-opacity=".16" offset="100%"/></linearGradient><linearGradient x1="59.921%" y1="0%" x2="59.921%" y2="58.499%" id="f"><stop stop-color="#FFF" stop-opacity="0" offset="0%"/><stop stop-color="#68FFFF" stop-opacity=".16" offset="100%"/></linearGradient><linearGradient x1="50%" y1="0%" x2="50%" y2="83.267%" id="g"><stop stop-color="#FFF" stop-opacity="0" offset="0%"/><stop stop-color="#68FFFF" stop-opacity=".16" offset="100%"/></linearGradient><linearGradient x1="50%" y1="57.875%" x2="70.076%" y2="-30.443%" id="h"><stop stop-color="#FFF" stop-opacity="0" offset="0%"/><stop stop-color="#68FFFF" stop-opacity=".16" offset="100%"/></linearGradient><linearGradient x1="50%" y1="57.875%" x2="54.322%" y2="-25.456%" id="i"><stop stop-color="#FFF" stop-opacity="0" offset="0%"/><stop stop-color="#68FFFF" stop-opacity=".16" offset="100%"/></linearGradient><path id="a" d="M0 0h800v140H0z"/></defs><g fill="none" fill-rule="evenodd"><mask id="c" fill="#fff"><use xlink:href="#a"/></mask><use fill="url(#b)" xlink:href="#a"/><g mask="url(#c)"><path d="m730.479 18.37 56.483 28.117-54.227 27.099.111.055-56.483 28.227-56.484-28.227 54.331-27.047-.215-.107L730.48 18.37Z" fill="url(#d)" opacity=".6" transform="translate(-129.49)"/><path fill="url(#e)" opacity=".6" d="m676.688 108.78-.333-35.301-56.476 8.544v54.914z" transform="translate(-129.49)"/><path fill="url(#f)" opacity=".6" d="m676.174 105.728-.322-59.804 110.772 55.332.338 59.896z" transform="translate(-129.49)"/><path d="m395.477 31.73 56.483 28.117-54.227 27.098.111.056-56.483 28.227L284.877 87l54.331-27.048-.215-.106 56.484-28.118Zm517.123 0 56.483 28.117-54.227 27.098.111.056-56.483 28.227L802 87l54.331-27.048-.215-.106L912.6 31.73Z" fill="url(#d)" opacity=".4" transform="translate(-129.49)"/><path d="m110.6 98.528 56.483 28.118-54.227 27.098.111.056-56.483 28.226L0 153.8l54.331-27.048-.215-.106L110.6 98.528Z" fill="url(#d)" opacity=".6" transform="translate(-129.49)"/><path fill="url(#g)" opacity=".6" d="m575.184 57.614 31.329 15.895-31.329 15.834-31.328-15.834z" transform="translate(-129.49)"/><path fill="url(#h)" opacity=".6" d="m543.02 107.538 31.747 16.04V89.456L543.02 73.479z" transform="translate(-129.49)"/><path fill="url(#i)" opacity=".6" d="m606.513 107.547-31.746 16.03v-34.13l31.745-15.968z" transform="translate(-129.49)"/><path stroke="#60ACFF" stroke-width=".8" opacity=".3" d="m445.695 80.158 31.328-15.895-31.328-15.834-31.328 15.834zM600.99 0l56.483 28.118-54.227 27.098.11.056-56.483 28.226-56.483-28.226 54.33-27.048-.214-.106L600.989 0ZM341.175 133.597l56.483 28.118-54.227 27.098.111.056-56.483 28.227-56.484-28.227 54.331-27.048-.215-.106 56.484-28.118Z"/></g><g mask="url(#c)"><path d="m730.479 18.37 56.483 28.117-54.227 27.099.111.055-56.483 28.227-56.484-28.227 54.331-27.047-.215-.107L730.48 18.37Z" fill="url(#d)" opacity=".6" transform="translate(-129.49)"/><path fill="url(#e)" opacity=".6" d="m676.688 108.78-.333-35.301-56.476 8.544v54.914z" transform="translate(-129.49)"/><path fill="url(#f)" opacity=".6" d="m676.174 105.728-.322-59.804 110.772 55.332.338 59.896z" transform="translate(-129.49)"/><path d="m395.477 31.73 56.483 28.117-54.227 27.098.111.056-56.483 28.227L284.877 87l54.331-27.048-.215-.106 56.484-28.118Zm517.123 0 56.483 28.117-54.227 27.098.111.056-56.483 28.227L802 87l54.331-27.048-.215-.106L912.6 31.73Z" fill="url(#d)" opacity=".4" transform="translate(-129.49)"/><path d="m110.6 98.528 56.483 28.118-54.227 27.098.111.056-56.483 28.226L0 153.8l54.331-27.048-.215-.106L110.6 98.528Z" fill="url(#d)" opacity=".6" transform="translate(-129.49)"/><path fill="url(#g)" opacity=".6" d="m575.184 57.614 31.329 15.895-31.329 15.834-31.328-15.834z" transform="translate(-129.49)"/><path fill="url(#h)" opacity=".6" d="m543.02 107.538 31.747 16.04V89.456L543.02 73.479z" transform="translate(-129.49)"/><path fill="url(#i)" opacity=".6" d="m606.513 107.547-31.746 16.03v-34.13l31.745-15.968z" transform="translate(-129.49)"/><path stroke="#60ACFF" stroke-width=".8" opacity=".3" d="m445.695 80.158 31.328-15.895-31.328-15.834-31.328 15.834zM600.99 0l56.483 28.118-54.227 27.098.11.056-56.483 28.226-56.483-28.226 54.33-27.048-.214-.106L600.989 0ZM341.175 133.597l56.483 28.118-54.227 27.098.111.056-56.483 28.227-56.484-28.227 54.331-27.048-.215-.106 56.484-28.118Z"/></g><g mask="url(#c)"><path d="m730.479 18.37 56.483 28.117-54.227 27.099.111.055-56.483 28.227-56.484-28.227 54.331-27.047-.215-.107L730.48 18.37Z" fill="url(#d)" opacity=".6" transform="translate(-129.49)"/><path fill="url(#e)" opacity=".6" d="m676.688 108.78-.333-35.301-56.476 8.544v54.914z" transform="translate(-129.49)"/><path fill="url(#f)" opacity=".6" d="m676.174 105.728-.322-59.804 110.772 55.332.338 59.896z" transform="translate(-129.49)"/><path d="m395.477 31.73 56.483 28.117-54.227 27.098.111.056-56.483 28.227L284.877 87l54.331-27.048-.215-.106 56.484-28.118Zm517.123 0 56.483 28.117-54.227 27.098.111.056-56.483 28.227L802 87l54.331-27.048-.215-.106L912.6 31.73Z" fill="url(#d)" opacity=".4" transform="translate(-129.49)"/><path d="m110.6 98.528 56.483 28.118-54.227 27.098.111.056-56.483 28.226L0 153.8l54.331-27.048-.215-.106L110.6 98.528Z" fill="url(#d)" opacity=".6" transform="translate(-129.49)"/><path fill="url(#g)" opacity=".6" d="m575.184 57.614 31.329 15.895-31.329 15.834-31.328-15.834z" transform="translate(-129.49)"/><path fill="url(#h)" opacity=".6" d="m543.02 107.538 31.747 16.04V89.456L543.02 73.479z" transform="translate(-129.49)"/><path fill="url(#i)" opacity=".6" d="m606.513 107.547-31.746 16.03v-34.13l31.745-15.968z" transform="translate(-129.49)"/><path stroke="#60ACFF" stroke-width=".8" opacity=".3" d="m445.695 80.158 31.328-15.895-31.328-15.834-31.328 15.834zM600.99 0l56.483 28.118-54.227 27.098.11.056-56.483 28.226-56.483-28.226 54.33-27.048-.214-.106L600.989 0ZM341.175 133.597l56.483 28.118-54.227 27.098.111.056-56.483 28.227-56.484-28.227 54.331-27.048-.215-.106 56.484-28.118Z"/></g></g></svg>