<?xml version="1.0" standalone="no"?><!DOCTYPE svg PUBLIC "-//W3C//DTD SVG 1.1//EN" "http://www.w3.org/Graphics/SVG/1.1/DTD/svg11.dtd"><svg t="1671088742021" class="icon" viewBox="0 0 1024 1024" version="1.1" xmlns="http://www.w3.org/2000/svg" p-id="2190" xmlns:xlink="http://www.w3.org/1999/xlink" width="200" height="200"><path d="M520.2 144c-206.3 0-373.5 167.2-373.5 373.5S313.9 891 520.2 891s373.5-167.2 373.5-373.5S726.5 144 520.2 144z m159.6 535.7c-28.1 27.8-62.8 47.8-101.3 58.1-19.7 5.3-39.5 7.8-58.9 7.8-100.7 0-193-67.2-220.3-169-4.9-18.2-7-37.4-7.2-56.9h-46l64.4-75.7c6.4-7.5 17.9-7.5 24.3 0l64.4 75.7h-49.5c0.1 14.6 1.7 28.7 5.3 42.1 24.3 90.7 117.9 144.8 208.7 120.5 27.9-7.5 53.1-21.7 73.7-41.5 6.1-5.9 15.5-6.6 22-1l19.4 16.9c6.6 5.8 7.4 16.6 1 23z m114.6-166.9L730 588.5c-6.4 7.5-17.9 7.5-24.3 0l-64.4-75.7H689c-0.7-29.3-6-48.6-17.5-70.4-12.5-23.8-29.1-46-50.8-61.9-42.7-31.2-95.3-40.9-145.5-27.5-30.9 8.3-58.3 24.8-80 48.1-5.8 6.2-15.1 7.5-21.8 2.2l-20.2-15.8c-7.2-5.6-8.5-16.4-2.4-23.1 29.4-32.6 67-55.6 109.6-67 73.7-19.8 151.7-2 211.4 50.4 24.9 21.9 43.7 50.2 57 80.5 11.7 26.6 17.2 51.2 17.8 84.4" fill="#1296db" p-id="2191" data-spm-anchor-id="a313x.7781069.0.i0" class="selected"></path></svg>